Patient4_TMGait_0pt7_01_left_20_EMG.mot
version=1
nRows=33
nColumns=33
inDegrees=no
endheader
time	1LAddLong	2LGlutMax	3LGlutMed	4LIliopsoas	5LSemiMemb	6LBicFemLong	7LRecFem	8LVastMed	9LVastLat	10LGasMed	11LTibAnt	12lTibPost	13LPeroneusLong	14LSol	15LExtDigLong	16LFlexDigLong	17RAddLong	18RGlutMax	19RGlutMed	20RIliopsoas	21RSemiMemb	22RBicFemLong	23RRecFem	24RVastMed	25RVastLat	26RGasMed	27RTibAnt	28RTibPost	29RPeroneusLong	30RSol	31RExtDigLong	32RFlexDigLong
23.76	-0.012512	0.20599	-0.4216	0.018921	0.005646	-0.011902	-0.24628	-0.001984	-0.047913	0.005341	0.022125	-0.005188	0.009766	-0.094604	0.030823	-0.031433	0.11169	-0.18372	0.44693	-0.12283	-0.081482	0.55969	-0.85098	-0.21271	0.025787	-0.018463	-0.095825	-0.019226	-0.00885	-0.070953	0.000153	-0.014954
23.761	-0.001373	0.17548	-0.38757	-0.005951	0.010681	-0.020599	-0.27832	-0.000305	-0.062103	0.02182	-0.11429	0.004883	0.01709	-0.11169	0.46677	-0.042114	0.13199	-0.20966	0.052795	-0.045624	0.50674	0.54916	-0.79559	-0.02243	0.1561	-0.018463	-0.033112	-0.026855	-0.12344	-0.18906	0.000763	-0.018158
23.762	0.002136	0.18005	-0.31723	-0.011444	-0.00412	-0.035248	-0.31296	0.00885	-0.050507	0.004272	-0.028076	-0.002747	-0.056763	-0.11353	-0.097046	-0.023651	0.10346	-0.19577	-0.47409	-0.053253	0.73868	0.40207	-0.64026	-0.019684	0.36468	-0.009003	-0.020752	-0.012665	-0.079956	-0.11688	-0.002441	-0.011749
23.763	0.003052	0.14847	-0.25513	0.004272	-0.017395	-0.051727	-0.31311	0.001526	-0.049438	-0.081787	-0.005798	0.002594	-0.084229	-0.039215	-0.083466	-0.014343	0.11734	-0.083313	-0.47394	-0.082855	0.60577	0.30533	-0.47546	-0.058289	0.3093	0.000153	-0.021515	-0.009918	-0.018005	-0.045929	0.000458	-0.005951
23.764	0.007782	0.05127	-0.21652	0.001221	-0.027466	-0.094452	-0.33142	0.004883	-0.046997	-0.11948	0.000153	0.004272	-0.045929	0.097198	-0.16525	0.006409	0.003815	-0.001373	-0.54108	-0.026245	0.27069	0.42328	-0.51987	0.30441	0.33417	-0.002747	0.1088	-0.012054	-0.07782	-0.037537	-0.003357	-0.009308
23.765	0.011597	0.090637	-0.1889	0.010071	-0.018616	-0.11154	-0.36285	-0.004272	-0.035248	0.036774	0.053101	0.004578	-0.066223	0.21774	-0.14008	0.014343	-0.063477	0.15259	-0.40054	-0.031586	0.23132	0.58365	-0.47928	0.11993	0.025177	-0.002136	0.3894	-0.011749	-0.059814	-0.051575	-0.001984	-0.007935
23.766	0.021667	0.1416	-0.15717	0.005646	-0.026245	-0.045471	-0.3418	0.001526	-0.041504	0.3241	0.049438	-0.00061	-0.055542	0.096893	-0.090637	0.03006	-0.037079	0.11765	-0.4425	0.12512	0.3569	0.78095	-0.17639	-0.28244	-0.17731	0.000458	0.5809	-0.017548	-0.086823	-0.067902	-0.001068	-0.00824
23.767	0.013733	0.159	-0.10849	0.028992	-0.031586	0.033417	-0.34866	-0.00061	-0.041046	0.26047	0.019989	-0.21698	0.019684	-0.050354	-0.028839	0.01358	-0.008698	0.071716	0.063324	0.2504	0.37598	0.95657	0.084381	-0.29739	-0.23956	-0.001831	0.53253	-0.012665	-0.17731	-0.078735	0.000305	-0.007935
23.768	0.012207	0.14114	-0.053101	0.014648	-0.010681	-0.018311	-0.33218	-0.009308	-0.03418	0.017395	0.008545	-0.093689	0.10742	-0.08194	0.010834	-1.2019	0.002594	0.001221	-0.18463	0.27603	0.30701	1.012	0.013733	0.009155	0.093231	-0.010376	0.27893	-0.011902	0.068817	-0.1088	-0.003052	-0.004883
23.769	0.010071	0.14832	0.015869	0.005035	0.025635	-0.044861	-0.28305	-0.001221	-0.055847	0.15533	0.033264	0.5339	-0.040894	-0.13092	0.025635	0.49149	0.085144	-0.16342	-0.83633	0.15793	0.52475	0.8963	-0.007019	0.53543	0.28458	-0.008545	-0.50995	-0.006561	0.046692	-0.090332	0.001221	-0.009155
23.77	-0.004883	0.13657	0.11246	-0.001526	0.013275	0.077209	-0.25314	-0.00412	-0.076447	0.25833	0.048065	0.063477	-0.026093	-0.38681	0.032806	-0.71823	0.11887	-0.12161	-1.1792	0.039063	0.84534	0.86502	-0.041504	0.26825	0.087585	0.004578	-1.0739	-0.003357	0.16083	-0.11215	0.001221	-0.010376
23.771	0.001221	0.13489	0.25207	-0.014191	0.02243	0.12619	-0.28107	-0.006104	-0.06073	0.15579	0.033875	0.16434	0.12711	-0.3212	0.026703	0.33569	0.11307	0.13916	-1.3976	-0.048676	0.70099	0.9166	0.11978	0.2504	-0.25757	0.011444	-0.31326	-0.001984	0.21316	-0.13687	0	-0.001373
23.772	-0.002136	0.17029	0.34332	-0.001068	0.027313	0.10178	-0.23972	-0.012512	-0.074158	-0.19882	0.009918	-0.38177	0.3006	-0.34729	0.013733	0.37598	0.040588	0.38025	-0.27329	-0.09491	0.34988	0.92316	0.23102	0.032196	-0.17975	0.01297	0.009308	-0.006104	0.17349	-0.13351	-0.001526	-0.001984
23.773	-0.001984	0.13702	0.41092	-0.002594	-0.004272	0.1178	-0.2211	0.002899	-0.077972	-0.43015	0.006409	-0.18524	0.215	0.052948	0.021057	-0.074921	-0.047607	0.50217	1.2291	-0.072784	0.12543	1.0471	0.28397	-0.14008	-0.049591	0.006256	-0.032959	-0.004425	0.088348	-0.093994	-0.002441	-0.00885
23.774	-0.003357	0.13031	0.46661	-0.005798	-0.030975	0.17654	-0.2034	0.002289	-0.070496	-0.11856	0.009003	0.072784	0.032043	0.54642	0.045624	0.22079	-0.045776	0.75974	0.99136	-0.073395	0.03418	1.1209	0.012512	-0.29373	0.052338	-0.002899	-0.086517	-0.002747	0.10956	-0.075073	-0.001221	-0.005341
23.775	-0.007629	0.12634	0.54901	0.005188	-0.016632	0.14343	-0.21698	0.000305	-0.060425	0.23621	0.020905	-0.014496	-0.18143	0.3746	0.043488	-0.47195	-0.049133	0.73547	1.0262	-0.081482	0.070953	1.0777	-0.20645	-0.38711	0.25909	0.003052	-0.29862	-0.003357	0.24628	-0.0354	-0.002289	-0.00412
23.776	-0.00946	0.22415	0.60043	0.018616	-0.001526	0.039215	-0.22858	-0.008545	-0.034332	-0.16739	0.012512	-0.011749	-0.18417	0.46219	-0.034332	0.19531	-0.019836	0.67871	0.93704	-0.073242	-0.22446	1.0805	0.032501	-0.22873	-0.14877	-0.003662	-0.31128	-0.002594	0.22842	-0.020599	-0.002136	-0.005798
23.777	0.001526	0.20844	0.62805	0.009766	0.01358	-0.048065	-0.21484	-0.002136	-0.040131	-0.48782	0.003052	0.004883	-0.18692	0.68924	-0.046844	0.25284	0.060425	0.70007	0.53787	-0.07843	-0.19836	1.0115	0.08316	-0.2182	-0.33951	-0.014954	-0.21942	-0.015411	0.19669	-0.029907	-0.001831	-0.006561
23.778	0.009155	0.22842	0.62576	0.031281	0.032043	-0.085297	-0.19104	0.006256	-0.049591	0.12039	-0.004272	0.007172	-0.017395	0.42465	0.059509	-0.36179	0.059509	0.61005	-0.12756	-0.04837	0.080109	0.90866	0.035248	-0.28061	-0.57754	-0.010681	-0.082397	-0.003204	-0.50262	-0.007935	-0.001068	-0.007935
23.779	0.006256	0.20874	0.6781	0.02533	0.068512	-0.094147	-0.17136	-0.002289	-0.044556	0.95169	-0.020142	0.16327	0.065613	-0.052185	0.037994	0.65597	-0.075531	0.58487	-0.20462	-0.03952	-0.10239	0.70007	-0.040894	0.027924	-0.045624	-0.009766	-0.16571	-0.003204	-0.74783	0.01297	0	-0.008545
23.78	-0.000305	0.23315	0.69946	0.018463	0.051727	-0.046844	-0.16357	0.000153	-0.052338	1.386	-0.008545	-0.35095	0.13672	-0.19028	-0.025635	0.31235	-0.11139	0.61172	0.14908	-0.041809	0.18295	0.52628	-0.050507	0.49057	0.22034	-0.002899	-0.071106	-0.007935	-0.30029	0.02121	0.000458	-0.002747
23.781	-0.002594	0.27313	0.70297	0.004272	0.048065	0.006256	-0.15015	0.003052	-0.055847	0.86212	-0.009003	0.051575	0.16281	-0.66498	-0.058899	-0.14252	-0.069275	0.41489	-0.12833	-0.009155	0.45212	0.41077	-0.028229	1.0928	0.10162	-0.003967	0.12833	-0.004425	0.65216	0.042877	0.003815	-0.001068
23.782	0.005493	0.28015	0.70221	-0.003662	0.03479	0.009308	-0.16937	0.006104	-0.0383	0.094299	0.001526	0.014954	0.14908	-0.98053	-0.05249	-0.059509	-0.030975	0.1442	-0.41489	0.049591	0.22949	0.26718	0.11002	0.54504	-0.077972	-0.001678	0.091705	-0.001984	0.22232	0.001526	0.000763	-0.000153
23.783	0.007782	0.26871	0.70679	-0.002899	-0.028381	0.027466	-0.15778	0.004272	-0.045319	-0.63461	0.006409	0.000763	0.072327	-0.79163	-0.061646	-0.027771	-0.028839	-0.14511	-0.48447	0.16571	0.15076	0.13825	0.20584	0.007019	-0.18951	0.001373	0.042877	-0.003052	-0.10056	-0.053864	0.000458	0.001984
23.784	0.006104	0.28259	0.72205	-0.014648	-0.029602	0.012207	-0.17105	-0.000305	-0.035858	-0.78507	0.013275	0.001984	0.028229	-0.29602	-0.06424	0.009003	-0.035553	-0.28	-0.58991	0.12238	0.25253	0.020752	0.31052	-0.32501	-0.3392	-0.003662	0.090942	0.001831	-0.048828	-0.032501	-0.001221	-0.003204
23.785	0.012512	0.27023	0.73685	-0.03418	-0.017395	-0.025177	-0.16159	0.00412	-0.04425	-0.2945	0.007477	-0.007172	-0.002594	0.21942	-0.052795	0.010376	0.003967	-0.50629	-0.72739	0.064545	0.092316	-0.020142	0.097809	-0.72586	-0.18539	-0.003357	0.15198	0.000763	0.10025	0.011444	0.003662	-0.00061
23.786	0.01297	0.22201	0.73761	-0.028992	-0.029602	-0.012512	-0.15839	-0.004272	-0.028534	-0.32684	0.018463	0.000305	-0.061035	0.39703	-0.016632	0.00351	0.041504	-0.56366	-0.83649	0.020752	0.22354	0.037079	0.091553	-0.8197	0.18982	0.000916	0.077667	-0.006561	0.5481	0.006866	0.001678	-0.001068
23.787	0.015259	0.16449	0.75409	-0.003662	0.003815	-0.010681	-0.15762	0.001984	-0.044556	-0.40375	0.011292	-0.008087	-0.084229	0.27344	-0.015717	-0.013428	0.063629	-0.52048	-1.0669	0.016479	0.36438	0.32944	0.11276	-0.76599	0.30914	0.00412	0.04303	-0.002136	0.04425	-0.053864	0.001373	0.004272
23.788	0.012665	0.1506	0.73654	0.000153	0.038147	-0.021515	-0.15762	-0.001678	-0.044556	-0.31921	0.018921	-0.013123	-0.071869	0.036469	-0.01709	0.007782	-0.037079	-0.48813	-1.2573	0.044403	0.48813	0.31158	-0.21805	-0.28336	0.17059	0	0.036774	-0.002441	-0.24567	-0.033875	-0.001526	-0.010223
23.789	0.010071	0.17502	0.74158	0.023346	0.026855	0.001526	-0.12405	0.007477	-0.047302	-0.2356	0.021362	-0.013123	-0.019989	-0.008545	0.007324	-0.001221	-0.076447	-0.44861	-1.1423	0.011749	0.20142	0.30991	-0.38742	-0.11719	-0.093842	-0.004272	0.029602	-0.002899	-0.42297	-0.06134	-0.001831	-0.01297
23.79	0.014648	0.14999	0.746	0.055847	0.010376	0.020447	-0.1091	-0.003052	-0.041962	-0.26901	0.016785	-0.018921	-0.08728	0.081635	0.022888	0.00061	-0.027008	-0.354	-0.82901	-0.055695	0.13046	0.21057	-0.29205	0.15411	0.12528	-0.014801	0.076294	0.002899	-0.42267	-0.030518	0.000916	-0.00824
23.791	0.005951	0.10681	0.7547	0.03952	-0.021973	0.040283	-0.14084	-0.000153	-0.037231	-0.3305	0.016174	-0.016632	-0.10437	0.01236	0.023041	-0.015106	0.036621	-0.1474	-0.88745	-0.020599	-0.24262	0.093689	-0.19028	0.79575	0.26642	-0.011597	0.036621	-0.006104	-0.007935	0.016022	0.001373	-0.00946
23.792	0.005493	0.10819	0.75104	0.015564	-0.028839	0.03067	-0.13031	-0.001221	-0.036926	-0.24429	0.015717	-0.00885	-0.06134	0.14404	0.04425	-0.012054	0.061035	-0.088806	-1.0927	-0.000458	-0.1059	-0.12436	-0.35202	0.59204	0.11047	-0.024261	0.046692	-0.003357	0.5777	0.04303	0.003052	-0.009613
